; NON-PLATED HOLES START AT T1
; THROUGH (PLATED) HOLES START AT T100
M48
INCH
T100C0.038000
T101C0.042000
T102C0.039370
T103C0.041111
T104C0.030000
T105C0.040000
T106C0.035000
T107C0.059055
%
T100
X016293Y029646
X007404Y024646
X016293Y026646
X014491Y019678
X007404Y022646
X007404Y025646
X016293Y020646
X016293Y028646
X014491Y018678
X034963Y032047
X016293Y031646
X016293Y012646
X016293Y015646
X007404Y018646
X007404Y019646
X007404Y016646
X016293Y014646
X034963Y031047
X016293Y013646
X034924Y036641
X007404Y027646
X014491Y020678
X016293Y011646
X024727Y035638
X016293Y017646
X007404Y030646
X007404Y021646
X007404Y023646
X016293Y021646
X016293Y030646
X007404Y017646
X024727Y036638
X016293Y023646
X024724Y032126
X007404Y013646
X007404Y011646
X034924Y035641
X016293Y027646
X014491Y021678
X016293Y018646
X007404Y015646
X007404Y012646
X007404Y014646
X016293Y016646
X016293Y019646
X007404Y026646
X016293Y024646
X024727Y031126
X007404Y029646
X007404Y031646
X007404Y028646
X007404Y020646
X016293Y025646
X016293Y022646
X032249Y037033
T101
X011172Y001205
X008192Y001205
T102
X011947Y004748
X014947Y004748
X018947Y004748
X017947Y004748
X040081Y034701
X015947Y004748
X016947Y004748
X010947Y004748
X012947Y004748
X013947Y004748
X040081Y032701
X009947Y004748
X040081Y030701
T103
X001648Y019433
X004648Y019433
X001648Y020433
X004648Y020433
X001648Y018433
X004648Y018433
X004648Y024433
X001648Y024433
X004648Y021433
X001648Y022433
X004648Y022433
X001648Y021433
X004648Y023433
X001648Y023433
T104
X004648Y016559
X002648Y016559
X014097Y002386
X001892Y011079
X001892Y009079
X012097Y002386
T105
X020003Y029552
X021003Y029552
X022003Y029552
T106
X028633Y029008
X006223Y024827
X033054Y032902
X023609Y015378
X031026Y022465
X028441Y024864
X006223Y002599
X030570Y012622
X022940Y021678
X039688Y012622
X022696Y017347
X032601Y002780
X012853Y003174
X005617Y006473
X033845Y006717
X024441Y024864
X031570Y016709
X022302Y003961
X004711Y030339
X035751Y005142
X034570Y016709
X034570Y012622
X031751Y005142
X003073Y010654
X030239Y009867
X032570Y016709
X001499Y027977
X020940Y021678
X001436Y029158
X023302Y005685
X023089Y011048
X025302Y005685
X021514Y013804
X005499Y027977
X008585Y006717
X032207Y021678
X019609Y015378
X018428Y025221
X021940Y021678
X029773Y005608
X027555Y013731
X020790Y004355
X032570Y011048
X022696Y002780
X021940Y018678
X026302Y029552
X034570Y019709
X020940Y018678
X025302Y008685
X029633Y026008
X027483Y004685
X031570Y019709
X034570Y021615
X023302Y008685
X030239Y018134
X019546Y016559
X025514Y013804
X038570Y013804
X032570Y019709
X033388Y025615
X033570Y008048
X034113Y003961
X027633Y026008
X030633Y029008
X023546Y016559
X031570Y011048
X005617Y009473
X018822Y011441
X018822Y012441
X006223Y001599
X018428Y029221
X034570Y011048
X022940Y018678
X004617Y006473
X028207Y021678
X035814Y027583
X021577Y006717
X023940Y021678
X028633Y026008
X030239Y024433
X020790Y012622
X037325Y030733
X037325Y034670
X007341Y003174
X029058Y003961
X011341Y003174
X032995Y029158
X027152Y023646
X027483Y008685
X003010Y005142
X033570Y016709
X037325Y031733
X034570Y013804
X020003Y026008
X016853Y003174
X027089Y011048
X026365Y012229
X015672Y001993
X026696Y017347
X007404Y010654
X005436Y029158
X004648Y015378
X038900Y033095
X006617Y006473
X026302Y025552
X038113Y021678
X029845Y006717
X003617Y006473
X024302Y005685
X026302Y008685
X004648Y011378
X034570Y025615
X020790Y027189
X023152Y023646
X014491Y006717
X033570Y011048
X018034Y031914
X026302Y005685
X003617Y009473
X024302Y008685
X026239Y009867
X020790Y001993
X031570Y008048
X006617Y009473
X038113Y003961
X000711Y030339
X037325Y033670
X034570Y008048
X038113Y024040
X005829Y011378
X024790Y027189
X029633Y029008
X025121Y026008
X035751Y011111
X006282Y032509
X022365Y012229
X031814Y027583
X026302Y003961
X019672Y001993
X029058Y007961
X005829Y015378
X035751Y007111
X005499Y026402
X038900Y029552
X020396Y009867
X026696Y002780
X021577Y010717
X018034Y030914
X027026Y022465
X033570Y019709
X007010Y005142
X033388Y021615
X001499Y026402
X024727Y016559
X032570Y008048
X023940Y018678
X035688Y012622
X030633Y026008
X004617Y009473
X027633Y029008
T107
X038507Y007536
X003073Y001567
X038507Y005536
X003073Y003567
X004255Y032276
X020003Y034670
X038113Y028008
X038113Y026008
X004255Y034276
X022003Y034670
X004255Y036276
T00
M30
